<svg width="78" height="105" viewBox="0 0 78 105" fill="none" xmlns="http://www.w3.org/2000/svg">
<path d="M56.9674 21.5322L56.7159 21.4553C53.9782 20.6176 51.1012 22.163 50.2901 24.907L47.563 34.1328C46.7519 36.8768 48.3137 39.7802 51.0514 40.6179L51.3029 40.6948C54.0406 41.5325 56.9175 39.9871 57.7286 37.2431L60.4558 28.0173C61.2669 25.2733 59.7051 22.3699 56.9674 21.5322Z" fill="#A30041"/>
<path d="M66.9457 39.3046L67.0072 39.0489C67.6769 36.2655 65.9696 33.4452 63.1938 32.7494L53.8613 30.4099C51.0856 29.7141 48.2926 31.4064 47.6229 34.1897L47.5614 34.4454C46.8918 37.2288 48.5991 40.0491 51.3748 40.7449L60.7074 43.0844C63.4831 43.7802 66.2761 42.0879 66.9457 39.3046Z" fill="#FF006D"/>
<path d="M63.4154 29.0308C65.0516 31.8647 68.6535 32.8483 71.4606 31.2276C74.2677 29.6069 75.2169 25.9958 73.5807 23.1618C71.9445 20.3279 68.3426 19.3444 65.5355 20.9651C62.7284 22.5857 61.7792 26.1969 63.4154 29.0308Z" fill="#FF006D"/>
<path d="M67.1153 49.0552L67.0547 48.7983C66.3951 46.0016 63.6082 44.253 60.8301 44.8927L51.4895 47.0436C48.7114 47.6834 46.994 50.4692 47.6537 53.2659L47.7143 53.5229C48.3739 56.3196 51.1607 58.0682 53.9388 57.4285L63.2794 55.2775C66.0576 54.6378 67.7749 51.852 67.1153 49.0552Z" fill="#FF5900"/>
<path d="M56.8103 66.479L57.0621 66.4072C59.8027 65.6248 61.3749 62.753 60.5736 59.9927L57.8797 50.7122C57.0784 47.952 54.2072 46.3486 51.4665 47.1309L51.2148 47.2028C48.4741 47.9851 46.902 50.8569 47.7032 53.6172L50.3972 62.8977C51.1984 65.658 54.0697 67.2614 56.8103 66.479Z" fill="#FFAA00"/>
<path d="M63.9076 64.2794C65.5437 67.1133 69.1457 68.0969 71.9528 66.4762C74.7599 64.8555 75.7091 61.2444 74.0729 58.4104C72.4367 55.5765 68.8348 54.593 66.0277 56.2136C63.2206 57.8343 62.2714 61.4455 63.9076 64.2794Z" fill="#FFAA00"/>
<path d="M48.9487 70.7786L49.1395 70.6013C51.216 68.6719 51.3288 65.4034 49.3913 63.301L42.8772 56.2322C40.9397 54.1298 37.6857 53.9895 35.6092 55.919L35.4184 56.0962C33.3419 58.0256 33.2291 61.2941 35.1666 63.3966L41.6807 70.4654C43.6182 72.5678 46.8722 72.708 48.9487 70.7786Z" fill="#A4A804"/>
<path d="M28.2314 70.9786L28.4206 71.1627C30.4799 73.167 33.7528 73.1277 35.7307 71.075L42.3807 64.1732C44.3585 62.1204 44.2924 58.8315 42.2331 56.8272L42.0439 56.6431C39.9845 54.6388 36.7116 54.6781 34.7338 56.7308L28.0838 63.6326C26.1059 65.6854 26.172 68.9743 28.2314 70.9786Z" fill="#DBE000"/>
<path d="M33.7357 82.0054C35.3719 84.8393 38.9738 85.8229 41.7809 84.2022C44.588 82.5815 45.5372 78.9704 43.901 76.1365C42.2649 73.3025 38.6629 72.319 35.8558 73.9397C33.0487 75.5603 32.0995 79.1715 33.7357 82.0054Z" fill="#DBE000"/>
<path d="M19.7807 66.1291L20.0316 66.208C22.7632 67.0662 25.6517 65.5426 26.4834 62.805L29.2795 53.6006C30.1112 50.863 28.571 47.948 25.8394 47.0898L25.5885 47.011C22.8569 46.1528 19.9684 47.6763 19.1367 50.4139L16.3406 59.6183C15.5089 62.3559 17.0491 65.2709 19.7807 66.1291Z" fill="#009E99"/>
<path d="M9.93176 48.284L9.86833 48.5392C9.17788 51.3172 10.8642 54.1502 13.6348 54.8669L22.9502 57.2765C25.7208 57.9932 28.5266 56.3221 29.217 53.5441L29.2804 53.2889C29.9709 50.5108 28.2846 47.6778 25.514 46.9612L16.1986 44.5516C13.4279 43.8349 10.6222 45.506 9.93176 48.284Z" fill="#00D2D3"/>
<path d="M3.19664 64.4143C4.83281 67.2483 8.43476 68.2318 11.2418 66.6111C14.0489 64.9905 14.9981 61.3793 13.362 58.5454C11.7258 55.7115 8.12383 54.7279 5.31675 56.3486C2.50968 57.9693 1.56047 61.5804 3.19664 64.4143Z" fill="#00D2D3"/>
<path d="M9.8326 38.5331L9.89128 38.7904C10.53 41.5919 13.3039 43.3613 16.0869 42.7426L25.4439 40.6623C28.2269 40.0436 29.9651 37.271 29.3264 34.4695L29.2677 34.2121C28.6289 31.4107 25.855 29.6412 23.0721 30.26L13.7151 32.3403C10.9321 32.959 9.19384 35.7316 9.8326 38.5331Z" fill="#0098FF"/>
<path d="M20.2655 21.19L20.0131 21.26C17.2666 22.0216 15.6729 24.8813 16.4535 27.6473L19.0783 36.9473C19.8589 39.7134 22.7183 41.3383 25.4649 40.5767L25.7172 40.5067C28.4637 39.7451 30.0574 36.8854 29.2768 34.1194L26.652 24.8194C25.8714 22.0533 23.012 20.4284 20.2655 21.19Z" fill="#73CDFF"/>
<path d="M2.96227 29.1693C4.59844 32.0032 8.2004 32.9867 11.0075 31.3661C13.8145 29.7454 14.7637 26.1343 13.1276 23.3003C11.4914 20.4664 7.88946 19.4829 5.08238 21.1035C2.27531 22.7242 1.32611 26.3354 2.96227 29.1693Z" fill="#73CDFF"/>
<path d="M28.6362 16.3183L28.4437 16.4958C26.3482 18.4272 26.2217 21.7127 28.1613 23.8342L34.6825 30.9671C36.6221 33.0886 39.8931 33.2427 41.9886 31.3113L42.1811 31.1339C44.2766 29.2025 44.4031 25.917 42.4635 23.7955L35.9423 16.6626C34.0027 14.5411 30.7317 14.3869 28.6362 16.3183Z" fill="#282B89"/>
<path d="M48.8829 16.9046L48.695 16.7191C46.6505 14.6994 43.3773 14.714 41.384 16.7517L34.6823 23.6027C32.689 25.6404 32.7305 28.9295 34.775 30.9491L34.9628 31.1347C37.0073 33.1543 40.2806 33.1397 42.2738 31.1021L48.9756 24.251C50.9689 22.2134 50.9273 18.9243 48.8829 16.9046Z" fill="#8688C0"/>
<path d="M33.267 11.6682C34.9031 14.5021 38.5051 15.4857 41.3122 13.865C44.1192 12.2443 45.0684 8.63316 43.4323 5.79924C41.7961 2.96532 38.1941 1.98178 35.3871 3.60244C32.58 5.22311 31.6308 8.83426 33.267 11.6682Z" fill="#8688C0"/>
<path d="M17.9335 97.2694C18.2719 96.6242 18.7899 96.0886 19.4261 95.7261C20.17 95.3399 21.0034 95.1546 21.8426 95.1887C22.6817 95.2229 23.497 95.4754 24.2064 95.9207C24.9063 96.4348 25.3979 97.1796 25.5928 98.0209H23.6667C23.5285 97.62 23.2662 97.2725 22.917 97.0278C22.5309 96.7791 22.0766 96.6549 21.6164 96.6722C21.2859 96.6589 20.9567 96.7212 20.6544 96.8542C20.3521 96.9873 20.0848 97.1875 19.8732 97.4394C19.4397 97.9515 19.2229 98.665 19.2229 99.5865C19.2229 100.508 19.4487 101.224 19.8732 101.74C20.0837 101.994 20.3506 102.196 20.653 102.33C20.9555 102.464 21.2852 102.527 21.6164 102.514C22.6506 102.514 23.334 102.067 23.6667 101.172H25.5928C25.3708 102 24.8746 102.729 24.1838 103.243C23.4367 103.772 22.5341 104.042 21.6164 104.011C20.8497 104.025 20.0932 103.835 19.4261 103.46C18.7903 103.094 18.2727 102.557 17.9335 101.91C17.577 101.189 17.3916 100.396 17.3916 99.5932C17.3916 98.79 17.577 97.9975 17.9335 97.2761V97.2694Z" fill="#0A0500"/>
<path d="M28.9125 103.454C28.2594 103.091 27.7226 102.554 27.3635 101.904C26.9758 101.193 26.7813 100.394 26.799 99.5865C26.7837 98.7792 26.9839 97.9822 27.3793 97.276C27.7476 96.6217 28.2956 96.0843 28.9599 95.7261C29.6512 95.3704 30.4187 95.1848 31.1976 95.1848C31.9765 95.1848 32.7441 95.3704 33.4353 95.7261C34.0994 96.0845 34.6474 96.6219 35.0159 97.276C35.4113 97.9822 35.6115 98.7792 35.5963 99.5865C35.6072 100.394 35.3973 101.189 34.9888 101.888C34.6084 102.55 34.0473 103.093 33.3698 103.454C32.6761 103.823 31.8993 104.012 31.1118 104.004C30.3428 104.014 29.5846 103.824 28.9125 103.454ZM32.4079 102.143C32.821 101.916 33.1602 101.577 33.3856 101.166C33.6492 100.681 33.7793 100.137 33.7627 99.5865C33.7791 99.0426 33.6547 98.5037 33.4014 98.0208C33.1834 97.6147 32.8528 97.2787 32.4486 97.0524C32.0555 96.8367 31.613 96.725 31.1637 96.7281C30.718 96.7245 30.279 96.8363 29.8902 97.0524C29.4904 97.2779 29.1662 97.6146 28.9576 98.0208C28.7173 98.5076 28.5995 99.0448 28.6144 99.5865C28.6144 100.506 28.8515 101.216 29.3257 101.716C29.5527 101.961 29.8302 102.155 30.1395 102.285C30.4488 102.415 30.7827 102.478 31.1186 102.47C31.5694 102.471 32.0131 102.359 32.4079 102.143Z" fill="#0A0500"/>
<path d="M49.6203 95.603C50.1582 95.8812 50.5994 96.3128 50.887 96.8421C51.2065 97.4542 51.362 98.1373 51.3386 98.826V103.863H49.5683V99.0899C49.5683 98.325 49.3756 97.7383 48.9903 97.3297C48.7855 97.1228 48.5387 96.9613 48.2662 96.8561C47.9937 96.7508 47.7017 96.7041 47.4096 96.7191C47.1177 96.7057 46.8262 96.7531 46.5539 96.8583C46.2817 96.9634 46.0347 97.124 45.829 97.3297C45.4391 97.7397 45.2434 98.3265 45.2419 99.0899V103.863H43.4784V99.0899C43.4784 98.325 43.2842 97.7479 42.9003 97.3297C42.6955 97.1229 42.4487 96.9615 42.1762 96.8563C41.9037 96.751 41.6118 96.7043 41.3197 96.7191C41.0278 96.706 40.7364 96.7535 40.4642 96.8587C40.1919 96.9638 39.9449 97.1243 39.7391 97.3297C39.3477 97.7397 39.152 98.3265 39.152 99.0899V103.863H37.3682V95.3234H39.152V96.2964C39.4523 95.9398 39.8328 95.6579 40.263 95.4733C40.7144 95.2778 41.2019 95.1773 41.6946 95.178C42.3373 95.1666 42.9726 95.3158 43.5416 95.612C44.0778 95.8943 44.5143 96.3321 44.7926 96.8667C45.0614 96.3415 45.4872 95.9111 46.0119 95.6343C46.5583 95.3348 47.1736 95.1807 47.798 95.187C48.4307 95.1756 49.0565 95.3185 49.6203 95.603Z" fill="#0A0500"/>
<path d="M53.7147 93.8675C53.5532 93.7089 53.4431 93.5062 53.3983 93.2854C53.3536 93.0645 53.3763 92.8355 53.4635 92.6274C53.5507 92.4194 53.6985 92.2418 53.888 92.1173C54.0775 91.9928 54.3002 91.927 54.5276 91.9283C54.6763 91.9258 54.8239 91.9534 54.9614 92.0096C55.0989 92.0658 55.2233 92.1492 55.3269 92.2549C55.5368 92.4718 55.654 92.7607 55.654 93.0612C55.654 93.3617 55.5368 93.6506 55.3269 93.8675C55.2232 93.9728 55.0987 94.056 54.9612 94.1117C54.8237 94.1675 54.6761 94.1948 54.5276 94.1918C54.3769 94.1956 54.2271 94.1687 54.0873 94.1129C53.9475 94.0572 53.8207 93.9736 53.7147 93.8675ZM55.4037 95.3235V103.863H53.6199V95.3235H55.4037Z" fill="#0A0500"/>
<path d="M57.8397 93.8675C57.6781 93.7087 57.5679 93.5059 57.5232 93.2848C57.4786 93.0637 57.5014 92.8345 57.5889 92.6263C57.6764 92.4182 57.8246 92.2406 58.0144 92.1163C58.2043 91.992 58.4273 91.9265 58.6549 91.9283C58.8032 91.926 58.9504 91.9538 59.0875 92.01C59.2245 92.0662 59.3486 92.1495 59.4519 92.2548C59.6634 92.471 59.7817 92.7602 59.7817 93.0611C59.7817 93.3621 59.6634 93.6513 59.4519 93.8675C59.3485 93.9725 59.2244 94.0555 59.0873 94.1113C58.9502 94.167 58.803 94.1944 58.6549 94.1918C58.5038 94.1958 58.3535 94.1691 58.2133 94.1134C58.0731 94.0576 57.946 93.9739 57.8397 93.8675ZM59.531 95.3235V103.863H57.7471V95.3235H59.531Z" fill="#0A0500"/>
</svg>
